# xmcd
#
# Track frame offsets: 
#        150
#        22337
#        80257
#        114137
#        144437
#        165547
#
# Disc length: 2690 seconds
#
# Revision: 3
# Processed by: cddbd v1.5.1PL2 Copyright (c) Steve Scherf et al.
# Submitted via: ExactAudioCopy v0.95b3
#
DISCID=410a8006
DTITLE=Sephiroth - Cathedron
DYEAR=1998
DGENRE=Dark Ambient
TTITLE0=Wolftribes
TTITLE1=Cathedron
TTITLE2=The moongate
TTITLE3=Abyssanctum
TTITLE4=Heliopolis
TTITLE5=Dark Father
EXTD=Cold Meat Industry 69 YEAR: 1998
EXTT0=
EXTT1=
EXTT2=
EXTT3=
EXTT4=
EXTT5=
PLAYORDER=
